<?xml version="1.0" encoding="iso-8859-1"?>
<!-- Generator: Adobe Illustrator 18.0.0, SVG Export Plug-In . SVG Version: 6.00 Build 0)  -->
<!DOCTYPE svg PUBLIC "-//W3C//DTD SVG 1.1//EN" "http://www.w3.org/Graphics/SVG/1.1/DTD/svg11.dtd">
<svg version="1.1" id="Capa_1" xmlns="http://www.w3.org/2000/svg" xmlns:xlink="http://www.w3.org/1999/xlink" x="0px" y="0px"
	 viewBox="0 0 456.88 456.88" style="enable-background:new 0 0 456.88 456.88;" xml:space="preserve">
<g id="XMLID_815_">
	<circle id="XMLID_816_" cx="124.751" cy="91.017" r="29.994"/>
	<circle id="XMLID_890_" cx="341.089" cy="83.072" r="28.452"/>
	<path id="XMLID_917_" d="M449.979,56.814c-6.81-4.184-15.723-2.053-19.905,4.759l-28.339,46.143l-42.314,14.61l-36.177,0.7
		c-2.362,0.046-4.717,0.26-7.049,0.641l-36.286,5.929l-27.295-14.864c-3.543-6.544-11.564-9.396-18.509-6.364l-49.956,21.839
		c-51.044,0-73.934-0.409-78.709-0.158L57.318,113.56L24.462,82.22c-5.784-5.519-14.946-5.3-20.461,0.482
		c-5.518,5.784-5.301,14.944,0.482,20.461l35.152,33.531c1.513,1.443,3.32,2.542,5.299,3.22l41.33,14.161v107.327L61.719,381.409
		c-1.922,9.397,4.138,18.573,13.534,20.495c9.398,1.922,18.573-4.139,20.495-13.535l25.876-126.515h4.162l25.868,48.277
		l13.795,77.79c1.68,9.481,10.732,15.741,20.132,14.067c9.444-1.675,15.742-10.688,14.067-20.132l-14.278-80.519
		c-0.32-1.808-0.925-3.552-1.792-5.17l-20.657-38.553v-98.465h24.253c1.995,0,3.969-0.413,5.797-1.212l43.524-19.027l33.928,18.477
		c2.727,1.484,5.962,2.108,9.256,1.573l24.666-4.03l-23.791,120.199c-0.443,2.24,0.137,4.562,1.585,6.327
		c1.449,1.765,3.612,2.789,5.896,2.789c1.884,0,4.032,0,6.361,0l-28.131,96.946c-2.535,8.737,2.493,17.876,11.23,20.412
		c8.746,2.535,17.878-2.498,20.412-11.23l30.795-106.127c5.497,0,11.123,0,16.707,0v101.537c0,9.098,7.376,16.474,16.474,16.474
		s16.474-7.376,16.474-16.474V284.246c6.17,0,11.584,0,15.786,0c2.282,0,4.445-1.03,5.893-2.794
		c1.448-1.764,2.031-4.083,1.588-6.322l-25.336-128.007l39.792-13.739c3.166-1.093,5.855-3.251,7.608-6.106l31.05-50.559
		C458.922,69.909,456.791,60.997,449.979,56.814z"/>
</g>
<g>
</g>
<g>
</g>
<g>
</g>
<g>
</g>
<g>
</g>
<g>
</g>
<g>
</g>
<g>
</g>
<g>
</g>
<g>
</g>
<g>
</g>
<g>
</g>
<g>
</g>
<g>
</g>
<g>
</g>
</svg>
