<?xml version="1.0" encoding="iso-8859-1"?>
<!-- Generator: Adobe Illustrator 19.0.0, SVG Export Plug-In . SVG Version: 6.00 Build 0)  -->
<svg version="1.1" id="Layer_1" xmlns="http://www.w3.org/2000/svg" xmlns:xlink="http://www.w3.org/1999/xlink" x="0px" y="0px"
	 viewBox="0 0 511.999 511.999" style="enable-background:new 0 0 511.999 511.999;" xml:space="preserve">
<g>
	<g>
		<path d="M489.895,50.64c-8.066-19.354-8.819-20.323-28.572-28.555c-0.124-0.05-0.248-0.099-0.372-0.151
			c-109.953-45.628-253.528-20.896-356.73,82.308C-2.016,210.478-25.732,360.187,27.126,472.792
			c2.493,5.312,6.764,9.583,12.076,12.076c112.412,52.772,262.17,29.286,368.55-77.093
			C510.542,304.984,536.036,161.428,489.895,50.64z M391.614,53.952c17.953,3.108,35.537,8.291,51.431,14.996
			c6.509,15.425,11.814,33.048,14.996,51.431C420.115,123.476,388.519,91.67,391.614,53.952z M120.36,458.063
			c-18.179-3.146-35.8-8.403-51.431-14.996c-6.573-15.574-11.831-33.133-14.996-51.431c17.73-1.452,35.522,4.828,48.562,17.867
			C115.532,422.539,121.813,440.339,120.36,458.063z M372.194,372.216c-57.965,57.965-131.086,87.624-201.682,89.509
			c2.513-32.049-8.881-64.205-32.459-87.783c-23.578-23.58-55.734-34.972-87.785-32.459c1.884-70.594,31.536-143.71,89.509-201.684
			C197.743,81.834,270.864,52.176,341.46,50.29c-5.352,68.281,51.738,125.608,120.244,120.23
			C459.82,241.24,430.079,314.331,372.194,372.216z"/>
	</g>
</g>
<g>
	<g>
		<path d="M356.736,226.375l-17.779-17.779l16.595-16.595c9.82-9.818,9.82-25.739,0-35.559c-9.818-9.818-25.739-9.818-35.559,0
			l-16.595,16.595l-17.78-17.78c-9.818-9.818-25.739-9.818-35.559,0c-9.82,9.818-9.82,25.739,0,35.559l17.78,17.78l-11.853,11.853
			l-17.78-17.78c-9.818-9.82-25.739-9.82-35.559,0c-9.82,9.818-9.82,25.739,0,35.559l17.78,17.78l-11.853,11.853l-17.78-17.78
			c-9.818-9.818-25.739-9.818-35.559,0c-9.82,9.818-9.82,25.739,0,35.559l17.78,17.78l-16.595,16.595
			c-9.82,9.818-9.82,25.739,0,35.559c9.82,9.82,25.739,9.82,35.559,0l16.595-16.595l17.779,17.779c9.82,9.821,25.739,9.82,35.559,0
			c9.82-9.818,9.82-25.739,0-35.559l-17.779-17.779l11.853-11.853l17.779,17.779c9.821,9.821,25.739,9.82,35.559,0
			c9.82-9.818,9.82-25.739,0-35.559l-17.779-17.779l11.853-11.853l17.779,17.779c9.82,9.82,25.739,9.818,35.559,0
			C366.555,252.116,366.555,236.195,356.736,226.375z"/>
	</g>
</g>
<g>
</g>
<g>
</g>
<g>
</g>
<g>
</g>
<g>
</g>
<g>
</g>
<g>
</g>
<g>
</g>
<g>
</g>
<g>
</g>
<g>
</g>
<g>
</g>
<g>
</g>
<g>
</g>
<g>
</g>
</svg>
